<svg xmlns="http://www.w3.org/2000/svg" width="96" height="96" viewBox="0 0 96 96">
    <g fill="none" fill-rule="evenodd">
        <g>
            <g>
                <g transform="translate(-1072 -3920) translate(0 3820) translate(1072 100)">
                    <circle cx="48" cy="48" r="47.5" stroke="#979797"/>
                    <g stroke="#FFF" stroke-width="2.286">
                        <path stroke-linecap="square" d="M11.429 28.571v-24m9.142 0v24" transform="translate(32 26)"/>
                        <path d="M2.286 28.571h27.428H2.286zm0-8h27.428H2.286zm0-8h27.428H2.286zM29.714 43.43V4.57H2.286V43.43h27.428zM0 3.429c0 .631.503 1.142 1.139 1.142H30.86c.63 0 1.139-.506 1.139-1.141V1.142C32 .512 31.497 0 30.861 0H1.14C.509 0 0 .507 0 1.142V3.43z" transform="translate(32 26)"/>
                        <path stroke-linecap="round" stroke-linejoin="round" d="M0 43.429h11.429v-5.715c0-2.524 2.046-4.571 4.571-4.571s4.571 2.047 4.571 4.571v5.715H32" transform="translate(32 26)"/>
                    </g>
                </g>
            </g>
        </g>
    </g>
</svg>
