<svg xmlns="http://www.w3.org/2000/svg" width="96" height="96" viewBox="0 0 96 96">
    <g fill="none" fill-rule="evenodd">
        <g>
            <g>
                <g transform="translate(-912 -3920) translate(0 3820) translate(912 100)">
                    <circle cx="48" cy="48" r="47.5" stroke="#979797"/>
                    <g fill="#FFF">
                        <path d="M16.72 25.4h20c1.201 0 2.287-.715 2.76-1.82l6-14c.397-.927.301-1.992-.255-2.833-.555-.842-1.497-1.348-2.505-1.347h-33c-.577.007-1.14.181-1.62.5l-2-4.6C5.862.755 5.325.402 4.73.4h-3C.902.4.23 1.072.23 1.9s.672 1.5 1.5 1.5h2l9.13 20.86c1.13 3.383.714 7.092-1.14 10.14-.002 2.035 1.23 3.869 3.114 4.637 1.885.767 4.047.316 5.467-1.142s1.815-3.63.999-5.495h10.85c-.882 2.022-.335 4.383 1.346 5.81 1.68 1.428 4.1 1.586 5.951.388 1.853-1.197 2.701-3.467 2.09-5.586-.613-2.12-2.541-3.587-4.747-3.612H16.76c-1.105 0-2-.895-2-2s.895-2 2-2h-.04zm26-17l-6 14h-21l-6-14h33zm-24 26c0 1.105-.895 2-2 2s-2-.895-2-2 .895-2 2-2 2 .895 2 2zm20 0c0 1.105-.895 2-2 2s-2-.895-2-2 .895-2 2-2 2 .895 2 2z" transform="translate(24 30)"/>
                    </g>
                </g>
            </g>
        </g>
    </g>
</svg>
