<svg xmlns="http://www.w3.org/2000/svg" width="96" height="96" viewBox="0 0 96 96">
    <g fill="none" fill-rule="evenodd">
        <g>
            <g>
                <g transform="translate(-752 -3920) translate(0 3820) translate(752 100)">
                    <circle cx="48" cy="48" r="47.5" stroke="#979797"/>
                    <g fill="#FFF">
                        <path d="M40.96.5c1.556.082 2.79 1.342 2.84 2.9.02.64.42 15.12-7.46 23.06-1.174 1.167-2.449 2.228-3.81 3.17l-3.92 11.76c-.324 1-1.147 1.756-2.17 1.995-1.023.24-2.096-.073-2.83-.825l-6.33-6.33c-.291.876-.78 1.674-1.43 2.33-1.221 1.224-2.881 1.908-4.61 1.9-.581.004-1.16-.073-1.72-.23-.327-.097-.634-.25-.91-.45-.778.443-1.655.68-2.55.69-.309 0-.617-.03-.92-.09-.974-.195-1.788-.86-2.174-1.774-.386-.915-.295-1.962.244-2.796.231-.374.41-.778.53-1.2-.29-2.266.39-4.55 1.87-6.29.684-.625 1.496-1.093 2.38-1.37l-6.38-6.39c-.752-.731-1.068-1.802-.833-2.824.235-1.022.987-1.847 1.983-2.176l11.93-4.07.26-.07c.956-1.295 2.005-2.518 3.14-3.66C24.64 1.21 35.43.5 39.77.5zM28.55 31.91c-2.719 1.327-5.621 2.24-8.61 2.71l5.78 5.78zm-17.328-2.533l-.232.003c-1.17-.028-2.316.323-3.27 1-.829 1.109-1.188 2.499-1 3.87-.036 1.116-.382 2.2-1 3.13.11.011.22.011.33 0 1.87 0 3.67-3 3.67-3 .56.56.65 2.92.65 2.92.281.07.57.104.86.1.93.016 1.829-.344 2.49-1 2.09-2.09 0-6.02 0-6.02-.74-.686-1.723-1.046-2.73-1zM28.76 5.08c-3.197.883-6.132 2.53-8.55 4.8-4.246 4.265-7.164 9.67-8.4 15.56l1.21 1.21c1.066.284 2.038.843 2.82 1.62.207.21.383.45.52.71.285.56.525 1.142.72 1.74l1.09 1.09c6.032-.611 11.676-3.26 16-7.51h.05c2.318-2.5 3.998-5.522 4.9-8.81h-.08c-2.758.117-5.45-.86-7.49-2.72-1.884-2.11-2.883-4.863-2.79-7.69zM12.36 15.4l-8.64 3 5.38 5.32c.718-2.904 1.814-5.701 3.26-8.32zm13.36-2c1.5-.001 2.92.67 3.87 1.83 1.483 1.809 1.514 4.404.074 6.247-1.439 1.843-3.964 2.443-6.078 1.443-2.114-1-3.253-3.332-2.742-5.614.512-2.282 2.537-3.904 4.876-3.906zm1.55 3.74c-.512-.627-1.351-.884-2.126-.65-.775.233-1.333.91-1.414 1.716-.08.806.333 1.58 1.047 1.962.714.382 1.587.296 2.213-.218h-.01c.855-.697.984-1.954.29-2.81zM40.76 3.39c-.325.09-.663.128-1 .11-2.687.013-5.366.287-8 .82-.09 2.67.57 4.99 1.91 6.34 1.34 1.35 3.6 1.99 6.23 1.8v-.01c.636-2.977.925-6.017.86-9.06z" transform="translate(26 27)"/>
                    </g>
                </g>
            </g>
        </g>
    </g>
</svg>
