<svg xmlns="http://www.w3.org/2000/svg" width="31" height="72" viewBox="0 0 31 72">
    <g fill="none" fill-rule="evenodd">
        <g fill="#B8A892">
            <g>
                <g>
                    <g>
                        <path d="M16.928 62.815c.098-.513-.056-.747-.419-1.007-1.275-.913-1.843-2.232-2.017-3.757-.24-2.103.181-4.16.396-6.23.035-.333.074-.664.13-1.16.362.45.67.787.928 1.16 1.864 2.7 2.441 5.66 1.732 8.855-.16.723-.597 1.396-.378 2.18.052.186.105.408.236.531 2.01 1.882 4.243 3.44 6.898 4.476-.11-.16-.196-.435-.333-.462-1.34-.268-2.199-1.157-2.834-2.248-.808-1.386-1.042-2.964-1.297-4.522-.148-.903-.278-1.809-.43-2.814 1.08.51 1.97 1.156 2.706 1.988 1.651 1.868 2.509 4.036 2.379 6.552-.01.169-.012.338-.02.508-.047 1.014.094 1.327 1.025 1.624 1.561.496 3.145.924 4.726 1.354.55.15.56.116.644.85-1.168-.26-2.302-.488-3.423-.772-.656-.166-1.291-.415-1.933-.636-.616-.212-1.293.026-1.637.57-.689 1.09-1.739 1.647-2.96 1.916-2.237.493-4.395.16-6.479-.71-.44-.185-.825-.5-1.313-.804 1.1-.99 2.242-1.688 3.526-2.164 1.28-.474 2.621-.75 3.945-.45 1.282.289 2.505.84 3.783 1.209-.728-.377-1.498-.694-2.178-1.144-1.414-.936-2.796-1.92-4.16-2.93-.676-.5-1.254-.544-1.874.006-.998.887-2.21.943-3.426.77-2.374-.338-4.413-1.385-6.099-3.087-.204-.206-.355-.464-.567-.747 1.299-.593 2.562-.903 3.898-.94 1.364-.038 2.717.109 3.878.825 1.097.677 2.073 1.547 3.14 2.297-.633-.683-1.318-1.327-1.89-2.058-1.034-1.319-1.981-2.705-3.01-4.028-.288-.37-.727-.627-1.113-.915-.061-.045-.219-.001-.312.043-1.563.728-3.032.335-4.347-.537-1.922-1.274-3.413-2.96-4.27-5.138-.068-.174-.116-.357-.162-.538-.018-.068-.003-.144-.003-.24 2.114-.204 3.975.379 5.665 1.58 1.487 1.058 2.486 2.504 3.31 4.094.1.194.262.357.442.487-.771-1.68-1.575-3.347-2.3-5.047-.435-1.017-.742-2.088-1.115-3.13-.087-.243-.204-.475-.315-.708-.28-.585-.671-.798-1.394-.792-1.314.011-2.292-.808-3.1-1.766C1.69 43.411.661 41.356.121 39.07c-.088-.375-.075-.772-.121-1.29 4.34 1.644 6.635 4.768 7.39 9.153l.131-.09c-.197-1.094-.45-2.182-.577-3.284-.182-1.586-.247-3.186-.417-4.775-.052-.487-.278-.958-.446-1.429-.027-.077-.16-.147-.256-.165-1.17-.225-1.944-.969-2.529-1.935-.97-1.604-1.464-3.372-1.753-5.203-.199-1.264-.353-2.531-.066-3.865.903.5 1.6 1.201 2.23 1.964 2.037 2.461 2.83 5.308 2.613 8.463-.017.237.041.48.197.708.05-1.069.063-2.141.157-3.207.132-1.496.366-2.984.47-4.481.056-.792.048-1.583-.83-2.122-1.099-.674-1.527-1.83-1.736-3.048-.453-2.645-.462-5.275.365-7.864.044-.137.106-.269.175-.445 1.475 1.623 2.35 3.472 2.675 5.592.294 1.92-.033 3.781-.469 5.639-.06.252-.037.523.072.794.266-1.024.494-2.06.81-3.067.42-1.344.94-2.656 1.356-4 .242-.78.375-1.54-.345-2.267-.932-.944-1.066-2.228-1.03-3.483.063-2.194.515-4.32 1.391-6.343.207-.478.484-.927.82-1.565.313.73.616 1.283.79 1.874.962 3.259.742 6.422-.855 9.458-.135.256-.219.537-.326.806l.15.069c.325-.636.616-1.29.979-1.903.958-1.618 1.937-3.225 2.93-4.823.427-.687.47-1.4.05-2.05-.69-1.07-.687-2.266-.5-3.439.392-2.468 1.574-4.564 3.277-6.38.2-.212.444-.382.73-.626.502 2.419.243 4.685-.44 6.92-.43 1.406-1.202 2.624-2.17 3.73-.203.234-.297.561-.443.845l.14.078c.549-.661 1.065-1.353 1.654-1.978 1.177-1.249 2.396-2.458 3.589-3.692.105-.108.215-.28.208-.416-.081-1.657.858-2.75 2.056-3.686C23.462 1.27 24.981.876 26.424.325c.246-.094.498-.173.938-.325-.362.865-.622 1.637-.995 2.349-1.036 1.973-2.572 3.366-4.803 3.895-.056.013-.112.046-.165.04-1.01-.107-1.652.507-2.273 1.152-1.07 1.111-2.131 2.23-3.197 3.346l.16.211c.193-.113.488-.181.561-.347.669-1.514 1.972-2.188 3.475-2.241 1.561-.055 3.135.231 4.71.452-1.425 1.949-3.232 3.122-5.661 3.005-.767-.037-1.529-.344-2.275-.583-.415-.133-1.23-.081-1.443.252-1.206 1.884-2.392 3.78-3.582 5.675-.046.073-.068.162-.102.243l.118.125c.183-.16.49-.292.532-.482.355-1.65 1.468-2.564 2.999-2.978.956-.259 1.967-.33 2.958-.444.693-.08 1.393-.086 2.182-.13-.707 1.281-1.584 2.328-2.734 3.106-1.54 1.043-3.209 1.59-5.092.993-.383-.121-1.236.256-1.403.603-1.194 2.48-2.151 5.046-2.853 7.705-.008.032.012.071.058.3.22-.288.485-.475.48-.655-.05-2.213 1.189-3.604 3.012-4.531 1.423-.724 2.933-1.28 4.403-1.91l.154.109c-.271.676-.507 1.37-.82 2.027-.887 1.855-2.183 3.355-4.08 4.232-.598.276-1.293.397-1.956.465-.76.079-1.41.543-1.581 1.295-.658 2.886-1.059 5.802-1.091 8.768.498-.28.494-.32.423-.834-.233-1.69.229-3.196 1.227-4.568 1.028-1.412 2.443-2.398 3.787-3.464l.963-.764.185.057c-.205 1.087-.338 2.194-.63 3.258-.597 2.186-1.765 4.017-3.679 5.317-.233.158-.48.355-.744.396-.751.118-1.069.708-1.46 1.221-.072.094-.098.244-.098.368 0 2.942.296 5.855.931 8.73.008.033.045.057.098.12.217-.392.272-.683.058-1.152-.634-1.385-.367-2.797.188-4.154.685-1.676 1.821-3.07 2.913-4.488l1.255-1.624c.07.52.148.934.177 1.351.204 2.98-.484 5.709-2.368 8.083-.256.322-.553.635-.893.863-.508.342-.89.752-1.03 1.348-.067.29-.165.614-.1.886.674 2.784 1.686 5.446 2.987 7.999.067.132.15.256.246.417.215-.364.174-.608-.083-.923-.936-1.145-1.147-2.523-1.044-3.933.135-1.857.84-3.57 1.523-5.28.264-.662.537-1.32.862-2.12.229.554.44.993.594 1.45.97 2.874.932 5.718-.323 8.506-.207.46-.52.871-.766 1.315-.114.206-.188.435-.272.656-.25.659-.047 1.217.309 1.797 1.305 2.126 2.807 4.092 4.634 5.934" transform="translate(-375.000000, -2626.000000) translate(0.000000, 2344.000000) translate(250.000000, 282.000000) translate(125.000000, 0.000000) translate(15.500000, 36.000000) scale(-1, 1) translate(-15.500000, -36.000000)"/>
                    </g>
                </g>
            </g>
        </g>
    </g>
</svg>
